<svg width="34" height="34" viewBox="0 0 34 34" fill="none" xmlns="http://www.w3.org/2000/svg">
<mask id="mask0_29_171" style="mask-type:alpha" maskUnits="userSpaceOnUse" x="0" y="0" width="34" height="34">
<rect width="34" height="34" fill="#D9D9D9"/>
</mask>
<g mask="url(#mask0_29_171)">
<path d="M18.4204 29.057C18.5149 29.057 18.6093 29.0329 18.7037 28.9846C18.7982 28.9364 18.869 28.8881 18.9162 28.8399L30.5329 16.9695C30.8163 16.6799 31.0228 16.3542 31.1527 15.9923C31.2826 15.6304 31.3475 15.2685 31.3475 14.9066C31.3475 14.5206 31.2826 14.1526 31.1527 13.8028C31.0228 13.453 30.8163 13.1453 30.5329 12.8799L24.5121 6.7276C24.2524 6.43808 23.9513 6.22697 23.609 6.09427C23.2666 5.96157 22.9065 5.89522 22.5288 5.89522C22.1746 5.89522 21.8204 5.96157 21.4663 6.09427C21.1121 6.22697 20.7933 6.43808 20.51 6.7276L20.1204 7.12569L22.7413 9.83996C23.0954 10.1777 23.3551 10.5638 23.5204 10.9981C23.6857 11.4323 23.7683 11.8907 23.7683 12.3733C23.7683 13.3866 23.4319 14.2371 22.759 14.9247C22.086 15.6123 21.2537 15.9561 20.2621 15.9561C19.7899 15.9561 19.3353 15.8717 18.8985 15.7028C18.4617 15.5339 18.0781 15.2806 17.7475 14.9428L15.0912 12.2647L8.89333 18.598C8.8225 18.6704 8.76937 18.7488 8.73396 18.8333C8.69854 18.9177 8.68083 19.0082 8.68083 19.1047C8.68083 19.2977 8.75167 19.4726 8.89333 19.6294C9.035 19.7863 9.20028 19.8647 9.38917 19.8647C9.48361 19.8647 9.57806 19.8405 9.6725 19.7923C9.76694 19.744 9.83778 19.6958 9.885 19.6475L14.7017 14.7257L16.685 16.7523L11.9037 21.6742C11.8329 21.7466 11.7798 21.825 11.7444 21.9094C11.709 21.9939 11.6912 22.0843 11.6912 22.1809C11.6912 22.3739 11.7621 22.5428 11.9037 22.6875C12.0454 22.8323 12.2107 22.9047 12.3996 22.9047C12.494 22.9047 12.5885 22.8805 12.6829 22.8323C12.7774 22.784 12.8482 22.7358 12.8954 22.6875L17.7121 17.8018L19.6954 19.8285L14.9142 24.7504C14.8433 24.7986 14.7902 24.871 14.7548 24.9675C14.7194 25.064 14.7017 25.1605 14.7017 25.257C14.7017 25.45 14.7725 25.6189 14.9142 25.7637C15.0558 25.9085 15.2211 25.9808 15.41 25.9808C15.5044 25.9808 15.593 25.9627 15.6756 25.9265C15.7583 25.8904 15.835 25.8361 15.9058 25.7637L20.7225 20.878L22.7058 22.9047L17.8892 27.8265C17.8183 27.8989 17.7652 27.9773 17.7298 28.0618C17.6944 28.1462 17.6767 28.2367 17.6767 28.3332C17.6767 28.5262 17.7534 28.6951 17.9069 28.8399C18.0603 28.9846 18.2315 29.057 18.4204 29.057ZM18.385 31.9522C17.5114 31.9522 16.7381 31.6567 16.0652 31.0656C15.3923 30.4745 14.9968 29.7326 14.8787 28.8399C14.076 28.7192 13.4031 28.3815 12.86 27.8265C12.3169 27.2716 11.9864 26.584 11.8683 25.7637C11.0656 25.6431 10.3985 25.2992 9.86729 24.7323C9.33604 24.1653 9.01139 23.4837 8.89333 22.6875C7.99611 22.5669 7.26417 22.1688 6.6975 21.4932C6.13083 20.8177 5.8475 20.0215 5.8475 19.1047C5.8475 18.6221 5.93604 18.1577 6.11312 17.7114C6.29021 17.265 6.54403 16.8729 6.87458 16.5352L15.0912 8.17521L19.7308 12.9161C19.7781 12.9885 19.8489 13.0428 19.9433 13.079C20.0378 13.1152 20.1322 13.1333 20.2267 13.1333C20.4392 13.1333 20.6162 13.0669 20.7579 12.9342C20.8996 12.8015 20.9704 12.6266 20.9704 12.4095C20.9704 12.313 20.9527 12.2165 20.9173 12.12C20.8819 12.0234 20.8287 11.9511 20.7579 11.9028L15.6933 6.7276C15.4336 6.43808 15.1326 6.22697 14.7902 6.09427C14.4478 5.96157 14.0878 5.89522 13.71 5.89522C13.3558 5.89522 13.0017 5.96157 12.6475 6.09427C12.2933 6.22697 11.9746 6.43808 11.6912 6.7276L6.6975 11.8666C6.485 12.0838 6.30792 12.3371 6.16625 12.6266C6.02458 12.9161 5.93014 13.2057 5.88292 13.4952C5.83569 13.7847 5.83569 14.0803 5.88292 14.3818C5.93014 14.6834 6.02458 14.9669 6.16625 15.2323L4.11208 17.3314C3.71069 16.7764 3.41556 16.1672 3.22667 15.5037C3.03778 14.8403 2.96694 14.1707 3.01417 13.4952C3.06139 12.8196 3.22667 12.1622 3.51 11.5228C3.79333 10.8835 4.18292 10.3104 4.67875 9.80377L9.6725 4.70094C10.2392 4.14603 10.8708 3.72381 11.5673 3.43428C12.2638 3.14476 12.9781 3 13.71 3C14.4419 3 15.1562 3.14476 15.8527 3.43428C16.5492 3.72381 17.169 4.14603 17.7121 4.70094L18.1017 5.09904L18.4913 4.70094C19.0579 4.14603 19.6895 3.72381 20.386 3.43428C21.0826 3.14476 21.7968 3 22.5288 3C23.2607 3 23.9749 3.14476 24.6715 3.43428C25.368 3.72381 25.9878 4.14603 26.5308 4.70094L32.5163 10.8171C33.0593 11.372 33.4725 12.0114 33.7558 12.7352C34.0392 13.459 34.1808 14.1949 34.1808 14.9428C34.1808 15.6907 34.0392 16.4206 33.7558 17.1323C33.4725 17.8441 33.0593 18.4774 32.5163 19.0323L20.8996 30.8665C20.569 31.2043 20.1853 31.4697 19.7485 31.6627C19.3117 31.8557 18.8572 31.9522 18.385 31.9522Z" fill="#1C1B1F"/>
</g>
</svg>
