<svg width="34" height="34" viewBox="0 0 34 34" fill="none" xmlns="http://www.w3.org/2000/svg">
<mask id="mask0_29_159" style="mask-type:alpha" maskUnits="userSpaceOnUse" x="0" y="0" width="34" height="34">
<rect width="34" height="34" fill="#D9D9D9"/>
</mask>
<g mask="url(#mask0_29_159)">
<path d="M7.25 27.5046H24.25C24.6514 27.5046 24.9879 27.3659 25.2594 27.0884C25.5309 26.811 25.6667 26.4672 25.6667 26.057H5.83333C5.83333 26.4672 5.9691 26.811 6.24063 27.0884C6.51215 27.3659 6.84861 27.5046 7.25 27.5046ZM15.75 10.1333C14.6167 10.1333 13.6722 9.72916 12.9167 8.92091C12.1611 8.11266 11.8069 7.12949 11.8542 5.9714C11.9014 4.7168 12.3323 3.613 13.1469 2.65999C13.9615 1.70698 14.8292 0.820313 15.75 0C16.6708 0.820313 17.5385 1.70698 18.3531 2.65999C19.1677 3.613 19.5986 4.7168 19.6458 5.9714C19.6931 7.12949 19.3389 8.11266 18.5833 8.92091C17.8278 9.72916 16.8833 10.1333 15.75 10.1333ZM14.3333 23.1618H17.1667V14.4761H14.3333V23.1618ZM15.75 7.23806C16.0569 7.23806 16.3108 7.12949 16.5115 6.91234C16.7122 6.6952 16.8125 6.42981 16.8125 6.11616C16.8125 5.706 16.7003 5.33204 16.476 4.99426C16.2517 4.65648 16.0097 4.33077 15.75 4.01712C15.4903 4.33077 15.2483 4.65648 15.024 4.99426C14.7997 5.33204 14.6875 5.706 14.6875 6.11616C14.6875 6.42981 14.7878 6.6952 14.9885 6.91234C15.1892 7.12949 15.4431 7.23806 15.75 7.23806ZM27.4375 23.1618C27.7444 23.1618 27.9983 23.0592 28.199 22.8542C28.3997 22.6491 28.5 22.3897 28.5 22.0761C28.5 21.7624 28.3997 21.5031 28.199 21.298C27.9983 21.0929 27.7444 20.9904 27.4375 20.9904C27.1306 20.9904 26.8767 21.0929 26.676 21.298C26.4753 21.5031 26.375 21.7624 26.375 22.0761C26.375 22.3897 26.4753 22.6491 26.676 22.8542C26.8767 23.0592 27.1306 23.1618 27.4375 23.1618ZM24.25 30.3998H7.25C6.06944 30.3998 5.06597 29.9776 4.23958 29.1332C3.41319 28.2887 3 27.2633 3 26.057V23.1618H11.5V14.4761C11.5 13.6799 11.7774 12.9983 12.3323 12.4314C12.8872 11.8644 13.5542 11.5809 14.3333 11.5809H17.1667C17.9458 11.5809 18.6128 11.8644 19.1677 12.4314C19.7226 12.9983 20 13.6799 20 14.4761V23.1618H23.6833C23.6361 22.9688 23.6007 22.7878 23.5771 22.6189C23.5535 22.45 23.5417 22.2691 23.5417 22.0761C23.5417 20.9662 23.9194 20.0253 24.675 19.2532C25.4306 18.4812 26.3514 18.0951 27.4375 18.0951C28.5236 18.0951 29.4444 18.4812 30.2 19.2532C30.9556 20.0253 31.3333 20.9662 31.3333 22.0761C31.3333 22.9929 31.0677 23.8011 30.5365 24.5008C30.0052 25.2005 29.3264 25.671 28.5 25.9122V26.057C28.5 27.2633 28.0868 28.2887 27.2604 29.1332C26.434 29.9776 25.4306 30.3998 24.25 30.3998Z" fill="#1C1B1F"/>
</g>
</svg>
