<svg width="34" height="34" viewBox="0 0 34 34" fill="none" xmlns="http://www.w3.org/2000/svg">
<mask id="mask0_29_165" style="mask-type:alpha" maskUnits="userSpaceOnUse" x="0" y="0" width="34" height="34">
<rect width="34" height="34" fill="#D9D9D9"/>
</mask>
<g mask="url(#mask0_29_165)">
<path d="M16.75 8.79045C15.9708 8.79045 15.3038 8.50696 14.749 7.93997C14.1941 7.37299 13.9167 6.69141 13.9167 5.89522C13.9167 5.09904 14.1941 4.41745 14.749 3.85047C15.3038 3.28349 15.9708 3 16.75 3C17.5292 3 18.1962 3.28349 18.751 3.85047C19.3059 4.41745 19.5833 5.09904 19.5833 5.89522C19.5833 6.69141 19.3059 7.37299 18.751 7.93997C18.1962 8.50696 17.5292 8.79045 16.75 8.79045ZM12.5 31.9522V13.1333C11.0833 13.0126 9.64306 12.8317 8.17917 12.5904C6.71528 12.3492 5.32222 12.0476 4 11.6857L4.70833 8.79045C6.55 9.29711 8.50972 9.66505 10.5875 9.89425C12.6653 10.1235 14.7194 10.2381 16.75 10.2381C18.7806 10.2381 20.8347 10.1235 22.9125 9.89425C24.9903 9.66505 26.95 9.29711 28.7917 8.79045L29.5 11.6857C28.1778 12.0476 26.7847 12.3492 25.3208 12.5904C23.8569 12.8317 22.4167 13.0126 21 13.1333V31.9522H18.1667V23.2666H15.3333V31.9522H12.5Z" fill="#1C1B1F"/>
</g>
</svg>
