<svg width="34" height="34" viewBox="0 0 34 34" fill="none" xmlns="http://www.w3.org/2000/svg">
<mask id="mask0_29_177" style="mask-type:alpha" maskUnits="userSpaceOnUse" x="0" y="0" width="34" height="34">
<rect width="34" height="34" fill="#D9D9D9"/>
</mask>
<g mask="url(#mask0_29_177)">
<path d="M24.2501 19.9237L17.5409 14.0609C16.7056 13.3371 15.9984 12.5349 15.419 11.6542C14.8397 10.7736 14.5501 9.81457 14.5501 8.77712C14.5501 7.45014 15.0688 6.32221 16.1061 5.39333C17.1435 4.46444 18.4032 4 19.8851 4C20.7473 4 21.5557 4.16286 22.3101 4.48857C23.0646 4.81428 23.7112 5.2546 24.2501 5.80951C24.789 5.2546 25.4357 4.81428 26.1901 4.48857C26.9446 4.16286 27.7529 4 28.6152 4C30.0971 4 31.3568 4.46444 32.3941 5.39333C33.4315 6.32221 33.9502 7.45014 33.9502 8.77712C33.9502 9.81457 33.6673 10.7736 33.1014 11.6542C32.5356 12.5349 31.835 13.3371 30.9998 14.0609L24.2501 19.9237ZM24.2501 15.8704L28.6556 11.9981C29.1675 11.5396 29.6391 11.0511 30.0702 10.5323C30.5013 10.0136 30.7168 9.42854 30.7168 8.77712C30.7168 8.24633 30.5148 7.79998 30.1106 7.43808C29.7064 7.07617 29.2079 6.89522 28.6152 6.89522C28.2379 6.89522 27.8809 6.96157 27.5441 7.09427C27.2073 7.22697 26.9176 7.42601 26.6751 7.69141L24.2501 10.2971L21.8251 7.69141C21.5826 7.42601 21.293 7.22697 20.9562 7.09427C20.6194 6.96157 20.2623 6.89522 19.8851 6.89522C19.2923 6.89522 18.7939 7.07617 18.3897 7.43808C17.9855 7.79998 17.7834 8.24633 17.7834 8.77712C17.7834 9.42854 17.999 10.0136 18.4301 10.5323C18.8612 11.0511 19.3327 11.5396 19.8447 11.9981L24.2501 15.8704ZM9.70005 27.8856L20.9359 30.636L30.5552 27.958C30.4204 27.7408 30.2251 27.5538 29.9691 27.397C29.7132 27.2402 29.4235 27.1618 29.1002 27.1618H20.9359C20.2084 27.1618 19.6291 27.1377 19.198 27.0894C18.7669 27.0411 18.3223 26.9446 17.8643 26.7999L14.1055 25.678L14.9947 22.8551L18.2684 23.8323C18.7265 23.9529 19.2654 24.0494 19.8851 24.1218C20.5048 24.1942 21.421 24.2424 22.6335 24.2666C22.6335 24.0012 22.5459 23.7478 22.3708 23.5066C22.1956 23.2653 21.9868 23.1085 21.7443 23.0361L12.2867 19.9237H9.70005V27.8856ZM0 32.9522V17.0285H12.2867C12.4753 17.0285 12.664 17.0466 12.8526 17.0828C13.0412 17.119 13.2163 17.1612 13.378 17.2095L22.876 20.358C23.7651 20.6475 24.4859 21.1542 25.0383 21.878C25.5906 22.6018 25.8668 23.398 25.8668 24.2666H29.1002C30.4474 24.2666 31.5925 24.6647 32.5356 25.4608C33.4787 26.257 33.9502 27.3065 33.9502 28.6094V30.057L21.0168 33.676L9.70005 30.8532V32.9522H0ZM3.23335 30.057H6.4667V19.9237H3.23335V30.057Z" fill="#1C1B1F"/>
</g>
</svg>
